<?xml version="1.0" encoding="UTF-8" standalone="no"?><svg xmlns="http://www.w3.org/2000/svg" xmlns:xlink="http://www.w3.org/1999/xlink" contentScriptType="application/ecmascript" contentStyleType="text/css" height="222px" preserveAspectRatio="none" style="width:501px;height:222px;" version="1.1" viewBox="0 0 501 222" width="501px" zoomAndPan="magnify"><defs/><g><!--MD5=[d9efb80c2bd3bb699b927ccac912b33c]
class AddressBook--><rect fill="#9D0012" height="27.4609" id="AddressBook" style="stroke: #FFFFFF; stroke-width: 1.0;" width="101" x="6" y="10"/><text fill="#FFFFFF" font-family="Arial" font-size="15" lengthAdjust="spacingAndGlyphs" textLength="95" x="9" y="28.9233">AddressBook</text><!--MD5=[868ed45abf0f905709752fc3fe3fe250]
class UniquePersonList--><rect fill="#9D0012" height="27.4609" id="UniquePersonList" style="stroke: #FFFFFF; stroke-width: 1.0;" width="131" x="127" y="97"/><text fill="#FFFFFF" font-family="Arial" font-size="15" lengthAdjust="spacingAndGlyphs" textLength="125" x="130" y="115.9233">UniquePersonList</text><!--MD5=[a97be948b589b73a8e5432e9944b103b]
class UniqueTagList--><rect fill="#9D0012" height="27.4609" id="UniqueTagList" style="stroke: #FFFFFF; stroke-width: 1.0;" width="108" x="142.5" y="10"/><text fill="#FFFFFF" font-family="Arial" font-size="15" lengthAdjust="spacingAndGlyphs" textLength="102" x="145.5" y="28.9233">UniqueTagList</text><!--MD5=[39d6d2ea03de602dbf4d534e70c872a9]
class Tag--><rect fill="#9D0012" height="27.4609" id="Tag" style="stroke: #FFFFFF; stroke-width: 1.0;" width="50" x="292.5" y="10"/><text fill="#FFFFFF" font-family="Arial" font-size="15" lengthAdjust="spacingAndGlyphs" textLength="27" x="304" y="28.9233">Tag</text><!--MD5=[09ce52be0ee7de43c61b6e2d59bf108b]
class Person--><rect fill="#9D0012" height="27.4609" id="Person" style="stroke: #FFFFFF; stroke-width: 1.0;" width="56" x="293.5" y="97"/><text fill="#FFFFFF" font-family="Arial" font-size="15" lengthAdjust="spacingAndGlyphs" textLength="50" x="296.5" y="115.9233">Person</text><!--MD5=[53f6a92bd21ca2f2960392a061f3a1c6]
class Name--><rect fill="#9D0012" height="27.4609" id="Name" style="stroke: #FFFFFF; stroke-width: 1.0;" width="50" x="167.5" y="184"/><text fill="#FFFFFF" font-family="Arial" font-size="15" lengthAdjust="spacingAndGlyphs" textLength="44" x="170.5" y="202.9233">Name</text><!--MD5=[03be55fb4aae919908819e432b9694ea]
class Phone--><rect fill="#9D0012" height="27.4609" id="Phone" style="stroke: #FFFFFF; stroke-width: 1.0;" width="51" x="253" y="184"/><text fill="#FFFFFF" font-family="Arial" font-size="15" lengthAdjust="spacingAndGlyphs" textLength="45" x="256" y="202.9233">Phone</text><!--MD5=[78bec0fde86ad92ec1dc3fb343b83709]
class Email--><rect fill="#9D0012" height="27.4609" id="Email" style="stroke: #FFFFFF; stroke-width: 1.0;" width="50" x="339.5" y="184"/><text fill="#FFFFFF" font-family="Arial" font-size="15" lengthAdjust="spacingAndGlyphs" textLength="39" x="345" y="202.9233">Email</text><!--MD5=[0f39e4cb6f03951afbf6d14bd2505654]
class Address--><rect fill="#9D0012" height="27.4609" id="Address" style="stroke: #FFFFFF; stroke-width: 1.0;" width="65" x="425" y="184"/><text fill="#FFFFFF" font-family="Arial" font-size="15" lengthAdjust="spacingAndGlyphs" textLength="59" x="428" y="202.9233">Address</text><!--MD5=[c7dd86eaf2272b48c339932390e97c9a]
link AddressBook to UniquePersonList--><path d="M86.7489,43.3952 C86.7489,43.3952 139.2,76.19 161.26,89.97 " fill="none" id="AddressBook-UniquePersonList" style="stroke: #9D0012; stroke-width: 1.1;"/><polygon fill="#9D0012" points="172.35,96.91,166.8466,88.7422,168.1128,94.2556,162.5995,95.5218,172.35,96.91" style="stroke: #9D0012; stroke-width: 1.1;"/><line style="stroke: #9D0012; stroke-width: 1.1;" x1="168.1128" x2="161.325" y1="94.2556" y2="90.015"/><polygon fill="#9D0012" points="76.57,37.04,79.5411,43.6106,86.7489,43.3952,83.7779,36.8246,76.57,37.04" style="stroke: #9D0012; stroke-width: 1.1;"/><text fill="#000000" font-family="sans-serif" font-size="13" font-weight="bold" lengthAdjust="spacingAndGlyphs" textLength="9" x="153.9522" y="85.8738">1</text><!--MD5=[0614b851a9a06b224eb2c12e99b071c6]
link AddressBook to UniqueTagList--><path d="M119.09,23.5 C119.09,23.5 126.29,23.5 129.27,23.5 " fill="none" id="AddressBook-UniqueTagList" style="stroke: #9D0012; stroke-width: 1.1;"/><polygon fill="#9D0012" points="142.36,23.5,133.36,19.5,137.36,23.5,133.36,27.5,142.36,23.5" style="stroke: #9D0012; stroke-width: 1.1;"/><line style="stroke: #9D0012; stroke-width: 1.1;" x1="137.36" x2="129.36" y1="23.5" y2="23.5"/><polygon fill="#9D0012" points="107.09,23.5,113.09,27.5,119.09,23.5,113.09,19.5,107.09,23.5" style="stroke: #9D0012; stroke-width: 1.1;"/><text fill="#000000" font-family="sans-serif" font-size="13" font-weight="bold" lengthAdjust="spacingAndGlyphs" textLength="9" x="125.4803" y="19.537">1</text><!--MD5=[c405e450ce4fd8a01ef4d120f1844f0f]
link UniqueTagList to UniquePersonList--><!--MD5=[c405e450ce4fd8a01ef4d120f1844f0f]
link UniqueTagList to UniquePersonList--><!--MD5=[3e504b887fd68e861d06f5e9394b74ec]
link UniqueTagList to Tag--><path d="M250.86,23.5 C262.93,23.5 275,23.5 287.07,23.5 " fill="none" id="UniqueTagList-&gt;Tag" style="stroke: #9D0012; stroke-width: 1.1;"/><polygon fill="#9D0012" points="292.25,23.5,283.25,19.5,287.25,23.5,283.25,27.5,292.25,23.5" style="stroke: #9D0012; stroke-width: 1.1;"/><text fill="#000000" font-family="sans-serif" font-size="13" font-weight="bold" lengthAdjust="spacingAndGlyphs" textLength="7" x="277.5234" y="18.5072">*</text><!--MD5=[03c7e7cbdb86e4f4cd514083b34aa6d4]
link UniquePersonList to Person--><path d="M258.01,110.5 C268,110.5 278,110.5 288,110.5 " fill="none" id="UniquePersonList-&gt;Person" style="stroke: #9D0012; stroke-width: 1.1;"/><polygon fill="#9D0012" points="293.23,110.5,284.23,106.5,288.23,110.5,284.23,114.5,293.23,110.5" style="stroke: #9D0012; stroke-width: 1.1;"/><!--MD5=[f9a17e001dff321a41705c6e7ed723ec]
reverse link Tag to Person--><path d="M318.34,42.27 C319.11,58.62 320.23,82.45 320.91,96.91 " fill="none" id="Tag&lt;-Person" style="stroke: #9D0012; stroke-width: 1.1;"/><polygon fill="#9D0012" points="318.09,37.04,314.5326,46.224,318.3333,42.0341,322.5231,45.8347,318.09,37.04" style="stroke: #9D0012; stroke-width: 1.1;"/><text fill="#000000" font-family="sans-serif" font-size="13" font-weight="bold" lengthAdjust="spacingAndGlyphs" textLength="7" x="309.8896" y="57.7182">*</text><!--MD5=[d4e2208d976dafd0005648cdae563e6a]
link Person to Name--><path d="M292.449,130.6415 C292.449,130.6415 243.41,162.95 222.66,176.63 " fill="none" id="Person-Name" style="stroke: #9D0012; stroke-width: 1.1;"/><polygon fill="#9D0012" points="211.61,183.91,221.3257,182.2962,215.7846,181.1581,216.9227,175.6169,211.61,183.91" style="stroke: #9D0012; stroke-width: 1.1;"/><line style="stroke: #9D0012; stroke-width: 1.1;" x1="215.7846" x2="222.465" y1="181.1581" y2="176.75"/><polygon fill="#9D0012" points="302.47,124.04,295.259,124.0004,292.449,130.6415,299.66,130.6811,302.47,124.04" style="stroke: #9D0012; stroke-width: 1.1;"/><!--MD5=[8467688aabdc77a50d4548f73f3f2237]
link Person to Phone--><path d="M309.7408,134.7466 C309.7408,134.7466 296.52,160.88 290.78,172.23 " fill="none" id="Person-Phone" style="stroke: #9D0012; stroke-width: 1.1;"/><polygon fill="#9D0012" points="284.87,183.91,292.5033,177.6864,287.128,179.4489,285.3656,174.0736,284.87,183.91" style="stroke: #9D0012; stroke-width: 1.1;"/><line style="stroke: #9D0012; stroke-width: 1.1;" x1="287.128" x2="290.74" y1="179.4489" y2="172.305"/><polygon fill="#9D0012" points="315.16,124.04,308.8815,127.5869,309.7408,134.7466,316.0193,131.1997,315.16,124.04" style="stroke: #9D0012; stroke-width: 1.1;"/><!--MD5=[c84fd83c0ae0719e8dada1fc8106e17d]
link Person to Email--><path d="M333.2592,134.7466 C333.2592,134.7466 346.48,160.88 352.22,172.23 " fill="none" id="Person-Email" style="stroke: #9D0012; stroke-width: 1.1;"/><polygon fill="#9D0012" points="358.13,183.91,357.6344,174.0736,355.872,179.4489,350.4967,177.6864,358.13,183.91" style="stroke: #9D0012; stroke-width: 1.1;"/><line style="stroke: #9D0012; stroke-width: 1.1;" x1="355.872" x2="352.26" y1="179.4489" y2="172.305"/><polygon fill="#9D0012" points="327.84,124.04,326.9807,131.1997,333.2592,134.7466,334.1185,127.5869,327.84,124.04" style="stroke: #9D0012; stroke-width: 1.1;"/><!--MD5=[b73c16dcbb300cfcfb8ac7b75475c389]
link Person to Address--><path d="M351.7489,130.3952 C351.7489,130.3952 404.2,163.19 426.26,176.97 " fill="none" id="Person-Address" style="stroke: #9D0012; stroke-width: 1.1;"/><polygon fill="#9D0012" points="437.35,183.91,431.8466,175.7422,433.1128,181.2556,427.5995,182.5218,437.35,183.91" style="stroke: #9D0012; stroke-width: 1.1;"/><line style="stroke: #9D0012; stroke-width: 1.1;" x1="433.1128" x2="426.325" y1="181.2556" y2="177.015"/><polygon fill="#9D0012" points="341.57,124.04,344.5411,130.6106,351.7489,130.3952,348.7779,123.8246,341.57,124.04" style="stroke: #9D0012; stroke-width: 1.1;"/><!--MD5=[abd563de8669fb067d0b74e784880920]
@startuml








skinparam Package {
    BackgroundColor #FFFFFF
    BorderThickness 1
    FontSize 16
}

skinparam Class {
    FontColor #FFFFFF
    FontSize 15
    BorderThickness 1
    BorderColor #FFFFFF
    StereotypeFontColor #FFFFFF
    FontName Arial
}

skinparam Actor {
    BorderColor #000000
    Color #000000
    FontName Arial
}

skinparam Sequence {
    MessageAlign center
    BoxFontSize 15
    BoxPadding 0
    BoxFontColor #FFFFFF
    FontName Arial
}

skinparam Participant {
    FontColor #FFFFFFF
    Padding 20
}

skinparam ArrowFontStyle bold
skinparam MinClassWidth 50
skinparam ParticipantPadding 10
skinparam Shadowing false
skinparam DefaultTextAlignment center
skinparam packageStyle Rectangle

hide footbox
hide members
hide circle
skinparam arrowThickness 1.1
skinparam arrowColor #9D0012
skinparam classBackgroundColor #9D0012

AddressBook *-right-> "1" UniquePersonList
AddressBook *-right-> "1" UniqueTagList
UniqueTagList -[hidden]down- UniquePersonList
UniqueTagList -[hidden]down- UniquePersonList

UniqueTagList -right-> "*" Tag
UniquePersonList -right-> Person

Person -up-> "*" Tag

Person *- -> Name
Person *- -> Phone
Person *- -> Email
Person *- -> Address
@enduml

PlantUML version 1.2020.02(Sun Mar 01 18:22:07 SGT 2020)
(GPL source distribution)
Java Runtime: OpenJDK Runtime Environment
JVM: OpenJDK 64-Bit Server VM
Java Version: 11.0.20.1+1-post-Ubuntu-0ubuntu123.04
Operating System: Linux
Default Encoding: UTF-8
Language: en
Country: US
--></g></svg>