<?xml version="1.0" encoding="UTF-8" standalone="no"?><svg xmlns="http://www.w3.org/2000/svg" xmlns:xlink="http://www.w3.org/1999/xlink" contentScriptType="application/ecmascript" contentStyleType="text/css" height="374px" preserveAspectRatio="none" style="width:342px;height:374px;" version="1.1" viewBox="0 0 342 374" width="342px" zoomAndPan="magnify"><defs><filter height="300%" id="fiw5iz2zkvnn8" width="300%" x="-1" y="-1"><feGaussianBlur result="blurOut" stdDeviation="2.0"/><feColorMatrix in="blurOut" result="blurOut2" type="matrix" values="0 0 0 0 0 0 0 0 0 0 0 0 0 0 0 0 0 0 .4 0"/><feOffset dx="4.0" dy="4.0" in="blurOut2" result="blurOut3"/><feBlend in="SourceGraphic" in2="blurOut3" mode="normal"/></filter></defs><g><ellipse cx="113" cy="20" fill="#000000" filter="url(#fiw5iz2zkvnn8)" rx="10" ry="10" style="stroke: none; stroke-width: 1.0;"/><rect fill="#FEFECE" filter="url(#fiw5iz2zkvnn8)" height="37.4609" rx="12.5" ry="12.5" style="stroke: #A80036; stroke-width: 1.5;" width="206" x="10" y="50"/><text fill="#000000" font-family="sans-serif" font-size="15" lengthAdjust="spacingAndGlyphs" textLength="186" x="20" y="73.9233">User executes command</text><rect fill="#FEFECE" filter="url(#fiw5iz2zkvnn8)" height="37.4609" rx="12.5" ry="12.5" style="stroke: #A80036; stroke-width: 1.5;" width="193" x="16.5" y="156.4453"/><text fill="#000000" font-family="sans-serif" font-size="15" lengthAdjust="spacingAndGlyphs" textLength="173" x="26.5" y="180.3687">Purge redundant states</text><rect fill="#FEFECE" filter="url(#fiw5iz2zkvnn8)" height="54.9219" rx="12.5" ry="12.5" style="stroke: #A80036; stroke-width: 1.5;" width="179" x="23.5" y="222.6758"/><text fill="#000000" font-family="sans-serif" font-size="15" lengthAdjust="spacingAndGlyphs" textLength="156" x="33.5" y="246.5991">Save AddressBook to</text><text fill="#000000" font-family="sans-serif" font-size="15" lengthAdjust="spacingAndGlyphs" textLength="159" x="33.5" y="264.0601">addressBookStateList</text><polygon fill="#FEFECE" filter="url(#fiw5iz2zkvnn8)" points="113,107.4609,113,107.4609,125,119.4609,113,131.4609,113,131.4609,101,119.4609,113,107.4609" style="stroke: #A80036; stroke-width: 1.5;"/><text fill="#000000" font-family="sans-serif" font-size="12" lengthAdjust="spacingAndGlyphs" textLength="213" x="117" y="142.5996">[command commits AddressBook]</text><text fill="#000000" font-family="sans-serif" font-size="12" lengthAdjust="spacingAndGlyphs" textLength="36" x="125" y="116.6309">[else]</text><polygon fill="#FEFECE" filter="url(#fiw5iz2zkvnn8)" points="113,297.5977,125,309.5977,113,321.5977,101,309.5977,113,297.5977" style="stroke: #A80036; stroke-width: 1.5;"/><ellipse cx="113" cy="352.5977" fill="#FFFFFF" filter="url(#fiw5iz2zkvnn8)" rx="11" ry="11" style="stroke: #000000; stroke-width: 1.0;"/><ellipse cx="113" cy="352.5977" fill="#000000" rx="6" ry="6" style="stroke: #7F7F7F; stroke-width: 1.0;"/><line style="stroke: #A80036; stroke-width: 1.5;" x1="113" x2="113" y1="30" y2="50"/><polygon fill="#A80036" points="109,40,113,50,117,40,113,44" style="stroke: #A80036; stroke-width: 1.0;"/><line style="stroke: #A80036; stroke-width: 1.5;" x1="113" x2="113" y1="193.9063" y2="222.6758"/><polygon fill="#A80036" points="109,212.6758,113,222.6758,117,212.6758,113,216.6758" style="stroke: #A80036; stroke-width: 1.0;"/><line style="stroke: #A80036; stroke-width: 1.5;" x1="113" x2="113" y1="131.4609" y2="156.4453"/><polygon fill="#A80036" points="109,146.4453,113,156.4453,117,146.4453,113,150.4453" style="stroke: #A80036; stroke-width: 1.0;"/><line style="stroke: #A80036; stroke-width: 1.5;" x1="125" x2="219.5" y1="119.4609" y2="119.4609"/><polygon fill="#A80036" points="215.5,203.9063,219.5,213.9063,223.5,203.9063,219.5,207.9063" style="stroke: #A80036; stroke-width: 1.5;"/><line style="stroke: #A80036; stroke-width: 1.5;" x1="219.5" x2="219.5" y1="119.4609" y2="309.5977"/><line style="stroke: #A80036; stroke-width: 1.5;" x1="219.5" x2="125" y1="309.5977" y2="309.5977"/><polygon fill="#A80036" points="135,305.5977,125,309.5977,135,313.5977,131,309.5977" style="stroke: #A80036; stroke-width: 1.0;"/><line style="stroke: #A80036; stroke-width: 1.5;" x1="113" x2="113" y1="277.5977" y2="297.5977"/><polygon fill="#A80036" points="109,287.5977,113,297.5977,117,287.5977,113,291.5977" style="stroke: #A80036; stroke-width: 1.0;"/><line style="stroke: #A80036; stroke-width: 1.5;" x1="113" x2="113" y1="87.4609" y2="107.4609"/><polygon fill="#A80036" points="109,97.4609,113,107.4609,117,97.4609,113,101.4609" style="stroke: #A80036; stroke-width: 1.0;"/><line style="stroke: #A80036; stroke-width: 1.5;" x1="113" x2="113" y1="321.5977" y2="341.5977"/><polygon fill="#A80036" points="109,331.5977,113,341.5977,117,331.5977,113,335.5977" style="stroke: #A80036; stroke-width: 1.0;"/><!--MD5=[8933c35a860a2f8c0214eab6d6bfd63f]
@startuml
skin rose
skinparam ActivityFontSize 15
skinparam ArrowFontSize 12
start
:User executes command;


if () then ([command commits AddressBook])
    :Purge redundant states;
    :Save AddressBook to
    addressBookStateList;
else ([else])
endif
stop
@enduml

PlantUML version 1.2020.02(Sun Mar 01 18:22:07 SGT 2020)
(GPL source distribution)
Java Runtime: OpenJDK Runtime Environment
JVM: OpenJDK 64-Bit Server VM
Java Version: 11.0.20.1+1-post-Ubuntu-0ubuntu123.04
Operating System: Linux
Default Encoding: UTF-8
Language: en
Country: US
--></g></svg>