<?xml version="1.0" encoding="UTF-8" standalone="no"?><svg xmlns="http://www.w3.org/2000/svg" xmlns:xlink="http://www.w3.org/1999/xlink" contentScriptType="application/ecmascript" contentStyleType="text/css" height="576px" preserveAspectRatio="none" style="width:573px;height:576px;" version="1.1" viewBox="0 0 573 576" width="573px" zoomAndPan="magnify"><defs/><g><!--MD5=[0639412964cd6dde026453d507ebb64b]
cluster ModelPackage--><rect fill="#FFFFFF" height="507" style="stroke: #000000; stroke-width: 1.5;" width="540" x="22" y="58"/><text fill="#000000" font-family="sans-serif" font-size="16" font-weight="bold" lengthAdjust="spacingAndGlyphs" textLength="53" x="265.5" y="74.8516">Model</text><!--MD5=[2aeb2dbcc9d5f1c77055387181aedc97]
class ReadOnlyAddressBook--><rect fill="#9D0012" height="44.9219" id="ReadOnlyAddressBook" style="stroke: #FFFFFF; stroke-width: 1.0;" width="170" x="38" y="95"/><text fill="#FFFFFF" font-family="Arial" font-size="15" lengthAdjust="spacingAndGlyphs" textLength="116" x="65" y="113.9233">&lt;&lt;interface&gt;&gt;</text><text fill="#FFFFFF" font-family="Arial" font-size="15" lengthAdjust="spacingAndGlyphs" textLength="164" x="41" y="131.3843">ReadOnlyAddressBook</text><!--MD5=[a832290d741b8e569f0b0a043ed40841]
class ReadOnlyUserPrefs--><rect fill="#9D0012" height="44.9219" id="ReadOnlyUserPrefs" style="stroke: #FFFFFF; stroke-width: 1.0;" width="146" x="400" y="95"/><text fill="#FFFFFF" font-family="Arial" font-size="15" lengthAdjust="spacingAndGlyphs" textLength="116" x="415" y="113.9233">&lt;&lt;interface&gt;&gt;</text><text fill="#FFFFFF" font-family="Arial" font-size="15" lengthAdjust="spacingAndGlyphs" textLength="140" x="403" y="131.3843">ReadOnlyUserPrefs</text><!--MD5=[7e20e022571e30ec1001cf6eabd7f3e2]
class Model--><rect fill="#9D0012" height="44.9219" id="Model" style="stroke: #FFFFFF; stroke-width: 1.0;" width="122" x="243" y="95"/><text fill="#FFFFFF" font-family="Arial" font-size="15" lengthAdjust="spacingAndGlyphs" textLength="116" x="246" y="113.9233">&lt;&lt;interface&gt;&gt;</text><text fill="#FFFFFF" font-family="Arial" font-size="15" lengthAdjust="spacingAndGlyphs" textLength="43" x="282.5" y="131.3843">Model</text><!--MD5=[d9efb80c2bd3bb699b927ccac912b33c]
class AddressBook--><rect fill="#9D0012" height="27.4609" id="AddressBook" style="stroke: #FFFFFF; stroke-width: 1.0;" width="101" x="72.5" y="200"/><text fill="#FFFFFF" font-family="Arial" font-size="15" lengthAdjust="spacingAndGlyphs" textLength="95" x="75.5" y="218.9233">AddressBook</text><!--MD5=[0d23c233efb60477cf7e578633a93a45]
class ModelManager--><rect fill="#9D0012" height="27.4609" id="ModelManager" style="stroke: #FFFFFF; stroke-width: 1.0;" width="113" x="248.5" y="200"/><text fill="#FFFFFF" font-family="Arial" font-size="15" lengthAdjust="spacingAndGlyphs" textLength="107" x="251.5" y="218.9233">ModelManager</text><!--MD5=[8d0026c7984aa4cd1b21c0238fc19d6b]
class UserPrefs--><rect fill="#9D0012" height="27.4609" id="UserPrefs" style="stroke: #FFFFFF; stroke-width: 1.0;" width="77" x="415.5" y="200"/><text fill="#FFFFFF" font-family="Arial" font-size="15" lengthAdjust="spacingAndGlyphs" textLength="71" x="418.5" y="218.9233">UserPrefs</text><!--MD5=[868ed45abf0f905709752fc3fe3fe250]
class UniquePersonList--><rect fill="#9D0012" height="27.4609" id="UniquePersonList" style="stroke: #FFFFFF; stroke-width: 1.0;" width="131" x="54.5" y="287"/><text fill="#FFFFFF" font-family="Arial" font-size="15" lengthAdjust="spacingAndGlyphs" textLength="125" x="57.5" y="305.9233">UniquePersonList</text><!--MD5=[09ce52be0ee7de43c61b6e2d59bf108b]
class Person--><rect fill="#9D0012" height="27.4609" id="Person" style="stroke: #FFFFFF; stroke-width: 1.0;" width="56" x="218" y="435"/><text fill="#FFFFFF" font-family="Arial" font-size="15" lengthAdjust="spacingAndGlyphs" textLength="50" x="221" y="453.9233">Person</text><!--MD5=[0f39e4cb6f03951afbf6d14bd2505654]
class Address--><rect fill="#9D0012" height="27.4609" id="Address" style="stroke: #FFFFFF; stroke-width: 1.0;" width="65" x="213.5" y="522"/><text fill="#FFFFFF" font-family="Arial" font-size="15" lengthAdjust="spacingAndGlyphs" textLength="59" x="216.5" y="540.9233">Address</text><!--MD5=[78bec0fde86ad92ec1dc3fb343b83709]
class Email--><rect fill="#9D0012" height="27.4609" id="Email" style="stroke: #FFFFFF; stroke-width: 1.0;" width="50" x="314" y="522"/><text fill="#FFFFFF" font-family="Arial" font-size="15" lengthAdjust="spacingAndGlyphs" textLength="39" x="319.5" y="540.9233">Email</text><!--MD5=[53f6a92bd21ca2f2960392a061f3a1c6]
class Name--><rect fill="#9D0012" height="27.4609" id="Name" style="stroke: #FFFFFF; stroke-width: 1.0;" width="50" x="42" y="522"/><text fill="#FFFFFF" font-family="Arial" font-size="15" lengthAdjust="spacingAndGlyphs" textLength="44" x="45" y="540.9233">Name</text><!--MD5=[03be55fb4aae919908819e432b9694ea]
class Phone--><rect fill="#9D0012" height="27.4609" id="Phone" style="stroke: #FFFFFF; stroke-width: 1.0;" width="51" x="127.5" y="522"/><text fill="#FFFFFF" font-family="Arial" font-size="15" lengthAdjust="spacingAndGlyphs" textLength="45" x="130.5" y="540.9233">Phone</text><!--MD5=[39d6d2ea03de602dbf4d534e70c872a9]
class Tag--><rect fill="#9D0012" height="27.4609" id="Tag" style="stroke: #FFFFFF; stroke-width: 1.0;" width="50" x="399" y="522"/><text fill="#FFFFFF" font-family="Arial" font-size="15" lengthAdjust="spacingAndGlyphs" textLength="27" x="410.5" y="540.9233">Tag</text><!--MD5=[cf39a86b148c3d2a53e894bf08c046dd]
class I--><rect fill="#FFFFFF" height="27.4609" id="I" style="stroke: #FFFFFF; stroke-width: 1.0;" width="50" x="221" y="287"/><rect fill="#FFFFFF" height="27.4609" style="stroke: #FFFFFF; stroke-width: 1.0;" width="50" x="221" y="287"/><text fill="#FFFFFF" font-family="Arial" font-size="15" lengthAdjust="spacingAndGlyphs" textLength="3" x="244.5" y="305.9233">I</text><!--MD5=[f8dc820cca8808bdb695301f77a92b66]
class HiddenOutside--><rect fill="#FFFFFF" height="27.4609" id="HiddenOutside" style="stroke: #FFFFFF; stroke-width: 1.0;" width="112" x="248" y="8"/><rect fill="#FFFFFF" height="27.4609" style="stroke: #FFFFFF; stroke-width: 1.0;" width="112" x="248" y="8"/><text fill="#FFFFFF" font-family="Arial" font-size="15" lengthAdjust="spacingAndGlyphs" textLength="106" x="251" y="26.9233">HiddenOutside</text><!--MD5=[d201fe284d2a1152149acb90a3e86885]
link HiddenOutside to Model--><path d="M304,35.18 C304,48.98 304,71.48 304,89.31 " fill="none" id="HiddenOutside-&gt;Model" style="stroke: #9D0012; stroke-width: 1.1; stroke-dasharray: 7.0,7.0;"/><polygon fill="#9D0012" points="304,94.68,308,85.68,304,89.68,300,85.68,304,94.68" style="stroke: #9D0012; stroke-width: 1.1;"/><!--MD5=[1ef48fc073810d6b9ed11d9ae64df6f6]
reverse link ReadOnlyAddressBook to AddressBook--><path d="M123,160.44 C123,174.7 123,189.59 123,199.77 " fill="none" id="ReadOnlyAddressBook&lt;-AddressBook" style="stroke: #9D0012; stroke-width: 1.1; stroke-dasharray: 7.0,7.0;"/><polygon fill="none" points="116,160.3,123,140.3,130,160.3,116,160.3" style="stroke: #9D0012; stroke-width: 1.1;"/><!--MD5=[b88a9fc704bcaab99a71844113667eb4]
reverse link Model to ModelManager--><path d="M304.45,160.44 C304.6,174.7 304.76,189.59 304.86,199.77 " fill="none" id="Model&lt;-ModelManager" style="stroke: #9D0012; stroke-width: 1.1; stroke-dasharray: 7.0,7.0;"/><polygon fill="none" points="297.45,160.38,304.23,140.3,311.44,160.23,297.45,160.38" style="stroke: #9D0012; stroke-width: 1.1;"/><!--MD5=[7f61239acdc5636e5180c70735bb5d1e]
link Model to ReadOnlyUserPrefs--><path d="M365.06,117.5 C374.88,117.5 384.69,117.5 394.51,117.5 " fill="none" id="Model-&gt;ReadOnlyUserPrefs" style="stroke: #9D0012; stroke-width: 1.1; stroke-dasharray: 7.0,7.0;"/><polygon fill="#9D0012" points="399.64,117.5,390.64,113.5,394.64,117.5,390.64,121.5,399.64,117.5" style="stroke: #9D0012; stroke-width: 1.1;"/><!--MD5=[46c48ab3efdb71f58fd07a116896e6cc]
reverse link ReadOnlyAddressBook to Model--><path d="M213.31,117.5 C223.08,117.5 232.85,117.5 242.63,117.5 " fill="none" id="ReadOnlyAddressBook&lt;-Model" style="stroke: #9D0012; stroke-width: 1.1; stroke-dasharray: 7.0,7.0;"/><polygon fill="#9D0012" points="208.2,117.5,217.2,121.5,213.2,117.5,217.2,113.5,208.2,117.5" style="stroke: #9D0012; stroke-width: 1.1;"/><!--MD5=[fdd8f89e1c750fa73ea19dec54098f32]
reverse link AddressBook to ModelManager--><path d="M179.07,213.5 C202.18,213.5 225.28,213.5 248.38,213.5 " fill="none" id="AddressBook&lt;-ModelManager" style="stroke: #9D0012; stroke-width: 1.1;"/><polygon fill="#9D0012" points="173.83,213.5,182.83,217.5,178.83,213.5,182.83,209.5,173.83,213.5" style="stroke: #9D0012; stroke-width: 1.1;"/><text fill="#000000" font-family="sans-serif" font-size="13" font-weight="bold" lengthAdjust="spacingAndGlyphs" textLength="9" x="181.6108" y="209.4891">1</text><!--MD5=[42904c058423188f4e71732d0edcdfe2]
link ModelManager to UserPrefs--><path d="M361.75,213.5 C377.97,213.5 394.19,213.5 410.41,213.5 " fill="none" id="ModelManager-&gt;UserPrefs" style="stroke: #9D0012; stroke-width: 1.1;"/><polygon fill="#9D0012" points="415.44,213.5,406.44,209.5,410.44,213.5,406.44,217.5,415.44,213.5" style="stroke: #9D0012; stroke-width: 1.1;"/><text fill="#000000" font-family="sans-serif" font-size="13" font-weight="bold" lengthAdjust="spacingAndGlyphs" textLength="9" x="398.5008" y="209.1538">1</text><!--MD5=[69497c261184ae79c34a503b1c31ce5d]
reverse link ReadOnlyUserPrefs to UserPrefs--><path d="M464.57,160.19 C461.67,174.53 458.64,189.53 456.57,199.77 " fill="none" id="ReadOnlyUserPrefs&lt;-UserPrefs" style="stroke: #9D0012; stroke-width: 1.1; stroke-dasharray: 7.0,7.0;"/><polygon fill="none" points="457.77,158.52,468.59,140.3,471.49,161.29,457.77,158.52" style="stroke: #9D0012; stroke-width: 1.1;"/><!--MD5=[c7dd86eaf2272b48c339932390e97c9a]
link AddressBook to UniquePersonList--><path d="M122.1383,239.0326 C122.1383,239.0326 121.28,263.26 120.91,273.83 " fill="none" id="AddressBook-UniquePersonList" style="stroke: #9D0012; stroke-width: 1.1;"/><polygon fill="#9D0012" points="120.44,286.91,124.7639,278.061,120.6214,281.9133,116.7692,277.7708,120.44,286.91" style="stroke: #9D0012; stroke-width: 1.1;"/><line style="stroke: #9D0012; stroke-width: 1.1;" x1="120.6214" x2="120.905" y1="281.9133" y2="273.915"/><polygon fill="#9D0012" points="122.56,227.04,118.3516,232.8957,122.1383,239.0326,126.3467,233.1769,122.56,227.04" style="stroke: #9D0012; stroke-width: 1.1;"/><text fill="#000000" font-family="sans-serif" font-size="13" font-weight="bold" lengthAdjust="spacingAndGlyphs" textLength="9" x="109.8921" y="275.8738">1</text><!--MD5=[03c7e7cbdb86e4f4cd514083b34aa6d4]
link UniquePersonList to Person--><path d="M130.96,314.2 C153.67,340.52 205.88,401.01 231.41,430.59 " fill="none" id="UniquePersonList-&gt;Person" style="stroke: #9D0012; stroke-width: 1.1;"/><polygon fill="#9D0012" points="234.97,434.72,232.1323,425.2888,231.709,430.9298,226.068,430.5064,234.97,434.72" style="stroke: #9D0012; stroke-width: 1.1;"/><text fill="#000000" font-family="sans-serif" font-size="13" font-weight="bold" lengthAdjust="spacingAndGlyphs" textLength="29" x="196.5558" y="423.8794">* all</text><!--MD5=[d4e2208d976dafd0005648cdae563e6a]
link Person to Name--><path d="M208.7535,467.1946 C208.7535,467.1946 134.43,502.48 104.21,516.83 " fill="none" id="Person-Name" style="stroke: #9D0012; stroke-width: 1.1;"/><polygon fill="#9D0012" points="92.07,522.59,101.9158,522.346,96.5873,520.4467,98.4866,515.1182,92.07,522.59" style="stroke: #9D0012; stroke-width: 1.1;"/><line style="stroke: #9D0012; stroke-width: 1.1;" x1="96.5873" x2="103.82" y1="520.4467" y2="517.02"/><polygon fill="#9D0012" points="219.59,462.04,212.4535,461.0051,208.7535,467.1946,215.8899,468.2295,219.59,462.04" style="stroke: #9D0012; stroke-width: 1.1;"/><!--MD5=[8467688aabdc77a50d4548f73f3f2237]
link Person to Phone--><path d="M223.421,470.1344 C223.421,470.1344 190.59,500.15 176.62,512.91 " fill="none" id="Person-Phone" style="stroke: #9D0012; stroke-width: 1.1;"/><polygon fill="#9D0012" points="166.78,521.91,176.12,518.7853,170.4687,518.5346,170.7194,512.8833,166.78,521.91" style="stroke: #9D0012; stroke-width: 1.1;"/><line style="stroke: #9D0012; stroke-width: 1.1;" x1="170.4687" x2="176.37" y1="518.5346" y2="513.135"/><polygon fill="#9D0012" points="232.28,462.04,225.1524,463.1342,223.421,470.1344,230.5486,469.0402,232.28,462.04" style="stroke: #9D0012; stroke-width: 1.1;"/><!--MD5=[c84fd83c0ae0719e8dada1fc8106e17d]
link Person to Email--><path d="M268.579,470.1344 C268.579,470.1344 301.41,500.15 315.38,512.91 " fill="none" id="Person-Email" style="stroke: #9D0012; stroke-width: 1.1;"/><polygon fill="#9D0012" points="325.22,521.91,321.2806,512.8833,321.5313,518.5346,315.88,518.7853,325.22,521.91" style="stroke: #9D0012; stroke-width: 1.1;"/><line style="stroke: #9D0012; stroke-width: 1.1;" x1="321.5313" x2="315.63" y1="518.5346" y2="513.135"/><polygon fill="#9D0012" points="259.72,462.04,261.4514,469.0402,268.579,470.1344,266.8476,463.1342,259.72,462.04" style="stroke: #9D0012; stroke-width: 1.1;"/><!--MD5=[b73c16dcbb300cfcfb8ac7b75475c389]
link Person to Address--><path d="M246,474.04 C246,474.04 246,498.26 246,508.83 " fill="none" id="Person-Address" style="stroke: #9D0012; stroke-width: 1.1;"/><polygon fill="#9D0012" points="246,521.91,250,512.91,246,516.91,242,512.91,246,521.91" style="stroke: #9D0012; stroke-width: 1.1;"/><line style="stroke: #9D0012; stroke-width: 1.1;" x1="246" x2="246" y1="516.91" y2="508.91"/><polygon fill="#9D0012" points="246,462.04,242,468.04,246,474.04,250,468.04,246,462.04" style="stroke: #9D0012; stroke-width: 1.1;"/><!--MD5=[d8ea7ee228526c243ddd13a4d03b47a6]
link Person to Tag--><path d="M283.0838,467.2212 C283.0838,467.2212 356.66,502.34 386.71,516.69 " fill="none" id="Person-Tag" style="stroke: #9D0012; stroke-width: 1.1;"/><polygon fill="#9D0012" points="398.78,522.46,392.3818,514.9725,394.2679,520.3056,388.9348,522.1918,398.78,522.46" style="stroke: #9D0012; stroke-width: 1.1;"/><line style="stroke: #9D0012; stroke-width: 1.1;" x1="394.2679" x2="387.05" y1="520.3056" y2="516.855"/><polygon fill="#9D0012" points="272.26,462.04,275.9448,468.2385,283.0838,467.2212,279.399,461.0227,272.26,462.04" style="stroke: #9D0012; stroke-width: 1.1;"/><text fill="#000000" font-family="sans-serif" font-size="13" font-weight="bold" lengthAdjust="spacingAndGlyphs" textLength="7" x="384.0615" y="513.9627">*</text><!--MD5=[b97229d5e80983cb4533bcce7a3674ae]
reverse link I to Person--><!--MD5=[9b4d2c13b6158b630beb6973b8ce4a1d]
link UniquePersonList to I--><!--MD5=[44c736116019ba75513e6202b286c7b8]
link Name to Phone--><!--MD5=[0ad9bbd3cbb714a395e16db642e04fb1]
link Phone to Address--><!--MD5=[e3eeb6369a04a754c13141896b25f265]
link Address to Email--><!--MD5=[661f9791363661a8e61ded75414577b6]
link ModelManager to Person--><path d="M303.4,227.18 C300.86,246.19 295.45,283.17 288,314 C277.78,356.29 261.31,404.73 252.33,430.03 " fill="none" id="ModelManager-&gt;Person" style="stroke: #9D0012; stroke-width: 1.1;"/><polygon fill="#9D0012" points="250.64,434.78,257.4175,427.634,252.3108,430.0674,249.8774,424.9607,250.64,434.78" style="stroke: #9D0012; stroke-width: 1.1;"/><text fill="#000000" font-family="sans-serif" font-size="13" font-weight="bold" lengthAdjust="spacingAndGlyphs" textLength="66" x="264.5198" y="423.9615">* filtered</text><!--MD5=[261710777a937365275374e37f734a92]
@startuml








skinparam Package {
    BackgroundColor #FFFFFF
    BorderThickness 1
    FontSize 16
}

skinparam Class {
    FontColor #FFFFFF
    FontSize 15
    BorderThickness 1
    BorderColor #FFFFFF
    StereotypeFontColor #FFFFFF
    FontName Arial
}

skinparam Actor {
    BorderColor #000000
    Color #000000
    FontName Arial
}

skinparam Sequence {
    MessageAlign center
    BoxFontSize 15
    BoxPadding 0
    BoxFontColor #FFFFFF
    FontName Arial
}

skinparam Participant {
    FontColor #FFFFFFF
    Padding 20
}

skinparam ArrowFontStyle bold
skinparam MinClassWidth 50
skinparam ParticipantPadding 10
skinparam Shadowing false
skinparam DefaultTextAlignment center
skinparam packageStyle Rectangle

hide footbox
hide members
hide circle
skinparam arrowThickness 1.1
skinparam arrowColor #9D0012
skinparam classBackgroundColor #9D0012

Package Model as ModelPackage <<Rectangle>>{
Class "<<interface>>\nReadOnlyAddressBook" as ReadOnlyAddressBook
Class "<<interface>>\nReadOnlyUserPrefs" as ReadOnlyUserPrefs
Class "<<interface>>\nModel" as Model
Class AddressBook
Class ModelManager
Class UserPrefs

Class UniquePersonList
Class Person
Class Address
Class Email
Class Name
Class Phone
Class Tag

Class I #FFFFFF
}

Class HiddenOutside #FFFFFF
HiddenOutside ..> Model

AddressBook .up.|> ReadOnlyAddressBook

ModelManager .up.|> Model
Model .right.> ReadOnlyUserPrefs
Model .left.> ReadOnlyAddressBook
ModelManager -left-> "1" AddressBook
ModelManager -right-> "1" UserPrefs
UserPrefs .up.|> ReadOnlyUserPrefs

AddressBook *- -> "1" UniquePersonList
UniquePersonList - -> "~* all" Person
Person *- -> Name
Person *- -> Phone
Person *- -> Email
Person *- -> Address
Person *- -> "*" Tag

Person -[hidden]up- -> I
UniquePersonList -[hidden]right-> I

Name -[hidden]right-> Phone
Phone -[hidden]right-> Address
Address -[hidden]right-> Email

ModelManager - -> "~* filtered" Person
@enduml

PlantUML version 1.2020.02(Sun Mar 01 18:22:07 SGT 2020)
(GPL source distribution)
Java Runtime: OpenJDK Runtime Environment
JVM: OpenJDK 64-Bit Server VM
Java Version: 11.0.20.1+1-post-Ubuntu-0ubuntu123.04
Operating System: Linux
Default Encoding: UTF-8
Language: en
Country: US
--></g></svg>