<?xml version="1.0" encoding="UTF-8" standalone="no"?><svg xmlns="http://www.w3.org/2000/svg" xmlns:xlink="http://www.w3.org/1999/xlink" contentScriptType="application/ecmascript" contentStyleType="text/css" height="505px" preserveAspectRatio="none" style="width:746px;height:505px;" version="1.1" viewBox="0 0 746 505" width="746px" zoomAndPan="magnify"><defs/><g><!--MD5=[703019aa5f8c8aa387047de168090ce7]
cluster Parser classes--><rect fill="#FFFFFF" height="412" style="stroke: #000000; stroke-width: 1.0;" width="583" x="22" y="82"/><text fill="#000000" font-family="sans-serif" font-size="16" font-weight="bold" lengthAdjust="spacingAndGlyphs" textLength="130" x="248.5" y="98.8516">Parser classes</text><!--MD5=[628cc5a2753cca06eb1ffef55c386535]
class Parser--><rect fill="#3333C4" height="44.9219" id="Parser" style="stroke: #FFFFFF; stroke-width: 1.0;" width="122" x="284" y="119"/><text fill="#FFFFFF" font-family="Arial" font-size="15" lengthAdjust="spacingAndGlyphs" textLength="116" x="287" y="137.9233">&lt;&lt;interface&gt;&gt;</text><text fill="#FFFFFF" font-family="Arial" font-size="15" lengthAdjust="spacingAndGlyphs" textLength="47" x="321.5" y="155.3843">Parser</text><!--MD5=[c55b3b0e591a57f21b6daadc7a5e584c]
class AddressBookParser--><rect fill="#3333C4" height="27.4609" id="AddressBookParser" style="stroke: #FFFFFF; stroke-width: 1.0;" width="148" x="441" y="128"/><text fill="#FFFFFF" font-family="Arial" font-size="15" lengthAdjust="spacingAndGlyphs" textLength="142" x="444" y="146.9233">AddressBookParser</text><!--MD5=[746b88d7985d9e505b8852bd181da32b]
class XYZCommandParser--><rect fill="#3333C4" height="27.4609" id="XYZCommandParser" style="stroke: #FFFFFF; stroke-width: 1.0;" width="158" x="362" y="250"/><text fill="#FFFFFF" font-family="Arial" font-size="15" lengthAdjust="spacingAndGlyphs" textLength="152" x="365" y="268.9233">XYZCommandParser</text><!--MD5=[a5f9b6bdaa662156cb9d68223195a1d4]
class CliSyntax--><rect fill="#3333C4" height="27.4609" id="CliSyntax" style="stroke: #FFFFFF; stroke-width: 1.0;" width="74" x="404" y="363"/><text fill="#FFFFFF" font-family="Arial" font-size="15" lengthAdjust="spacingAndGlyphs" textLength="68" x="407" y="381.9233">CliSyntax</text><!--MD5=[2d4364422ef2416875213e99e5053212]
class ParserUtil--><rect fill="#3333C4" height="27.4609" id="ParserUtil" style="stroke: #FFFFFF; stroke-width: 1.0;" width="76" x="513" y="363"/><text fill="#FFFFFF" font-family="Arial" font-size="15" lengthAdjust="spacingAndGlyphs" textLength="70" x="516" y="381.9233">ParserUtil</text><!--MD5=[219f3ac85648aee436ae9305d11a5044]
class ArgumentMultimap--><rect fill="#3333C4" height="27.4609" id="ArgumentMultimap" style="stroke: #FFFFFF; stroke-width: 1.0;" width="146" x="38" y="363"/><text fill="#FFFFFF" font-family="Arial" font-size="15" lengthAdjust="spacingAndGlyphs" textLength="140" x="41" y="381.9233">ArgumentMultimap</text><!--MD5=[976c1e937c698a0ce33eedc81d81cedc]
class ArgumentTokenizer--><rect fill="#3333C4" height="27.4609" id="ArgumentTokenizer" style="stroke: #FFFFFF; stroke-width: 1.0;" width="149" x="219.5" y="363"/><text fill="#FFFFFF" font-family="Arial" font-size="15" lengthAdjust="spacingAndGlyphs" textLength="143" x="222.5" y="381.9233">ArgumentTokenizer</text><!--MD5=[441c273129fdc179bfb2b8ffb4e98281]
class Prefix--><rect fill="#3333C4" height="27.4609" id="Prefix" style="stroke: #FFFFFF; stroke-width: 1.0;" width="50" x="416" y="451"/><text fill="#FFFFFF" font-family="Arial" font-size="15" lengthAdjust="spacingAndGlyphs" textLength="42" x="420" y="469.9233">Prefix</text><!--MD5=[521817ab83e81da341a3f4b5e91bae41]
class Command--><rect fill="#3333C4" height="44.9219" id="Command" style="stroke: #FFFFFF; stroke-width: 1.0;" width="87" x="628.5" y="241"/><text fill="#FFFFFF" font-family="Arial" font-size="15" lengthAdjust="spacingAndGlyphs" textLength="81" x="631.5" y="259.9233">{abstract}</text><text fill="#FFFFFF" font-family="Arial" font-size="15" lengthAdjust="spacingAndGlyphs" textLength="76" x="634" y="277.3843">Command</text><!--MD5=[20b3262af791fb1c285bffe8069ced12]
class XYZCommand--><rect fill="#3333C4" height="27.4609" id="XYZCommand" style="stroke: #FFFFFF; stroke-width: 1.0;" width="111" x="624.5" y="363"/><text fill="#FFFFFF" font-family="Arial" font-size="15" lengthAdjust="spacingAndGlyphs" textLength="105" x="627.5" y="381.9233">XYZCommand</text><!--MD5=[f8dc820cca8808bdb695301f77a92b66]
class HiddenOutside--><rect fill="#FFFFFF" height="27.4609" id="HiddenOutside" style="stroke: #FFFFFF; stroke-width: 1.0;" width="112" x="459" y="8"/><rect fill="#FFFFFF" height="27.4609" style="stroke: #FFFFFF; stroke-width: 1.0;" width="112" x="459" y="8"/><text fill="#FFFFFF" font-family="Arial" font-size="15" lengthAdjust="spacingAndGlyphs" textLength="106" x="462" y="26.9233">HiddenOutside</text><!--MD5=[cc9301565b24b2b2f57ed1e5f3abbd8d]
link HiddenOutside to AddressBookParser--><path d="M515,35.13 C515,56.24 515,98.76 515,122.83 " fill="none" id="HiddenOutside-&gt;AddressBookParser" style="stroke: #101086; stroke-width: 1.1; stroke-dasharray: 7.0,7.0;"/><polygon fill="#101086" points="515,127.96,519,118.96,515,122.96,511,118.96,515,127.96" style="stroke: #101086; stroke-width: 1.1;"/><!--MD5=[9dcc20432aa74acff501cdd9cd480f84]
link AddressBookParser to XYZCommandParser--><path d="M507.08,155.34 C493.67,177.09 466.5,221.15 451.51,245.45 " fill="none" id="AddressBookParser-&gt;XYZCommandParser" style="stroke: #101086; stroke-width: 1.1; stroke-dasharray: 7.0,7.0;"/><polygon fill="#101086" points="448.86,249.75,456.9783,244.1739,451.4765,245.4893,450.1611,239.9875,448.86,249.75" style="stroke: #101086; stroke-width: 1.1;"/><text fill="#000000" font-family="sans-serif" font-size="13" font-weight="bold" lengthAdjust="spacingAndGlyphs" textLength="55" x="483" y="207.0669">creates</text><polygon fill="#000000" points="506,216.1328,509,222.1328,512,216.1328,506,216.1328" style="stroke: #000000; stroke-width: 1.0;"/><!--MD5=[d27984addfc542d1d1be725c2279ae44]
link XYZCommandParser to XYZCommand--><path d="M467.95,277.02 C512.33,297.63 600.58,338.62 648.04,360.66 " fill="none" id="XYZCommandParser-&gt;XYZCommand" style="stroke: #101086; stroke-width: 1.1; stroke-dasharray: 7.0,7.0;"/><polygon fill="#101086" points="652.78,362.86,646.289,355.4528,648.2415,360.762,642.9322,362.7144,652.78,362.86" style="stroke: #101086; stroke-width: 1.1;"/><text fill="#000000" font-family="sans-serif" font-size="13" font-weight="bold" lengthAdjust="spacingAndGlyphs" textLength="55" x="582" y="329.0669">creates</text><polygon fill="#000000" points="640,323.0664,646,326.0664,640,329.0664,640,323.0664" style="stroke: #000000; stroke-width: 1.0;"/><!--MD5=[06c753ca6734b5ffde448918d4ce695b]
link AddressBookParser to Command--><path d="M531.51,155.12 C557.05,174.64 606.63,212.54 639.53,237.68 " fill="none" id="AddressBookParser-&gt;Command" style="stroke: #101086; stroke-width: 1.1; stroke-dasharray: 7.0,7.0;"/><polygon fill="#101086" points="643.86,240.99,639.1487,232.3411,639.891,237.949,634.2831,238.6914,643.86,240.99" style="stroke: #101086; stroke-width: 1.1;"/><text fill="#000000" font-family="sans-serif" font-size="13" font-weight="bold" lengthAdjust="spacingAndGlyphs" textLength="53" x="603" y="207.0669">returns</text><polygon fill="#000000" points="659,201.0664,665,204.0664,659,207.0664,659,201.0664" style="stroke: #000000; stroke-width: 1.0;"/><!--MD5=[f47c1d38bfb0bbd90ce9ecfd02721fe6]
reverse link Parser to XYZCommandParser--><path d="M375,180.01 C394.1,203.88 417.65,233.31 430.83,249.78 " fill="none" id="Parser&lt;-XYZCommandParser" style="stroke: #101086; stroke-width: 1.1; stroke-dasharray: 7.0,7.0;"/><polygon fill="none" points="369.41,184.22,362.38,164.23,380.34,175.48,369.41,184.22" style="stroke: #101086; stroke-width: 1.1;"/><!--MD5=[7704627926244de72f7ef2eb6defa245]
link XYZCommandParser to ArgumentMultimap--><path d="M403.79,277.02 C341.93,297.82 218.35,339.39 153.29,361.27 " fill="none" id="XYZCommandParser-&gt;ArgumentMultimap" style="stroke: #101086; stroke-width: 1.1; stroke-dasharray: 7.0,7.0;"/><polygon fill="#101086" points="148.33,362.94,158.1364,363.8533,153.0677,361.3417,155.5792,356.273,148.33,362.94" style="stroke: #101086; stroke-width: 1.1;"/><!--MD5=[3e460ee2718e2446fc84ab0c879fd975]
link XYZCommandParser to ArgumentTokenizer--><path d="M424.42,277.02 C397.51,297.34 344.38,337.46 314.91,359.71 " fill="none" id="XYZCommandParser-&gt;ArgumentTokenizer" style="stroke: #101086; stroke-width: 1.1; stroke-dasharray: 7.0,7.0;"/><polygon fill="#101086" points="310.74,362.86,320.3311,360.6216,314.728,359.844,315.5055,354.2409,310.74,362.86" style="stroke: #101086; stroke-width: 1.1;"/><!--MD5=[744126052430dceb43a1fc87b0afff3a]
reverse link ArgumentMultimap to ArgumentTokenizer--><path d="M189.49,376.5 C199.47,376.5 209.44,376.5 219.42,376.5 " fill="none" id="ArgumentMultimap&lt;-ArgumentTokenizer" style="stroke: #101086; stroke-width: 1.1; stroke-dasharray: 7.0,7.0;"/><polygon fill="#101086" points="184.27,376.5,193.27,380.5,189.27,376.5,193.27,372.5,184.27,376.5" style="stroke: #101086; stroke-width: 1.1;"/><!--MD5=[57b8f0a03f5f0a08076cf01ef235fbd0]
link XYZCommandParser to CliSyntax--><path d="M441,277.23 C441,297.06 441,335.35 441,357.83 " fill="none" id="XYZCommandParser-&gt;CliSyntax" style="stroke: #101086; stroke-width: 1.1; stroke-dasharray: 7.0,7.0;"/><polygon fill="#101086" points="441,362.92,445,353.92,441,357.92,437,353.92,441,362.92" style="stroke: #101086; stroke-width: 1.1;"/><!--MD5=[46bd36fa196b2102764e4db65e78a96e]
link CliSyntax to Prefix--><path d="M441,390.19 C441,404.8 441,428.9 441,445.46 " fill="none" id="CliSyntax-&gt;Prefix" style="stroke: #101086; stroke-width: 1.1; stroke-dasharray: 7.0,7.0;"/><polygon fill="#101086" points="441,450.76,445,441.76,441,445.76,437,441.76,441,450.76" style="stroke: #101086; stroke-width: 1.1;"/><!--MD5=[23dc644bd6e395904f7fbc7f95585d62]
link XYZCommandParser to ParserUtil--><path d="M453.29,277.19 C466.67,290.99 488.76,313.66 508,333 C516.65,341.7 526.37,351.31 534.37,359.19 " fill="none" id="XYZCommandParser-&gt;ParserUtil" style="stroke: #101086; stroke-width: 1.1; stroke-dasharray: 7.0,7.0;"/><polygon fill="#101086" points="538.15,362.91,534.5402,353.7465,534.586,359.4032,528.9293,359.449,538.15,362.91" style="stroke: #101086; stroke-width: 1.1;"/><!--MD5=[0e7e27ed237fb40dcd22197309d5f712]
link ParserUtil to Prefix--><path d="M534.77,390.19 C515.27,405.43 482.55,431.02 461.37,447.57 " fill="none" id="ParserUtil-&gt;Prefix" style="stroke: #101086; stroke-width: 1.1; stroke-dasharray: 7.0,7.0;"/><polygon fill="#101086" points="457.3,450.76,466.8581,448.3848,461.2445,447.6873,461.9419,442.0736,457.3,450.76" style="stroke: #101086; stroke-width: 1.1;"/><!--MD5=[5a965c56be27e54f1a55401a0d6400e9]
link ArgumentTokenizer to Prefix--><path d="M315.38,390.01 C341.83,405.48 386.85,431.82 415.2,448.4 " fill="none" id="ArgumentTokenizer-&gt;Prefix" style="stroke: #101086; stroke-width: 1.1; stroke-dasharray: 7.0,7.0;"/><polygon fill="#101086" points="419.6,450.98,413.8464,442.9865,415.2827,448.458,409.8112,449.8943,419.6,450.98" style="stroke: #101086; stroke-width: 1.1;"/><!--MD5=[520da0335c5a8803876f267d9ec2ad91]
reverse link Command to XYZCommand--><path d="M675,306.12 C676.45,326.3 678.1,349.09 679.09,362.87 " fill="none" id="Command&lt;-XYZCommand" style="stroke: #101086; stroke-width: 1.1;"/><polygon fill="none" points="668.02,306.62,673.56,286.17,681.98,305.61,668.02,306.62" style="stroke: #101086; stroke-width: 1.1;"/><!--MD5=[689bd47ec0ef0468f6395d3f4167b6a5]
@startuml








skinparam Package {
    BackgroundColor #FFFFFF
    BorderThickness 1
    FontSize 16
}

skinparam Class {
    FontColor #FFFFFF
    FontSize 15
    BorderThickness 1
    BorderColor #FFFFFF
    StereotypeFontColor #FFFFFF
    FontName Arial
}

skinparam Actor {
    BorderColor #000000
    Color #000000
    FontName Arial
}

skinparam Sequence {
    MessageAlign center
    BoxFontSize 15
    BoxPadding 0
    BoxFontColor #FFFFFF
    FontName Arial
}

skinparam Participant {
    FontColor #FFFFFFF
    Padding 20
}

skinparam ArrowFontStyle bold
skinparam MinClassWidth 50
skinparam ParticipantPadding 10
skinparam Shadowing false
skinparam DefaultTextAlignment center
skinparam packageStyle Rectangle

hide footbox
hide members
hide circle
skinparam arrowThickness 1.1
skinparam arrowColor #101086
skinparam classBackgroundColor #3333C4

Class "{abstract}\nCommand" as Command
Class XYZCommand

package "Parser classes"{
Class "<<interface>>\nParser" as Parser
Class AddressBookParser
Class XYZCommandParser
Class CliSyntax
Class ParserUtil
Class ArgumentMultimap
Class ArgumentTokenizer
Class Prefix
}

Class HiddenOutside #FFFFFF
HiddenOutside ..> AddressBookParser

AddressBookParser .down.> XYZCommandParser: creates >

XYZCommandParser ..> XYZCommand : creates >
AddressBookParser ..> Command : returns >
XYZCommandParser .up.|> Parser
XYZCommandParser ..> ArgumentMultimap
XYZCommandParser ..> ArgumentTokenizer
ArgumentTokenizer .left.> ArgumentMultimap
XYZCommandParser ..> CliSyntax
CliSyntax ..> Prefix
XYZCommandParser ..> ParserUtil
ParserUtil .down.> Prefix
ArgumentTokenizer .down.> Prefix
XYZCommand -up-|> Command
@enduml

PlantUML version 1.2020.02(Sun Mar 01 18:22:07 SGT 2020)
(GPL source distribution)
Java Runtime: OpenJDK Runtime Environment
JVM: OpenJDK 64-Bit Server VM
Java Version: 11.0.20.1+1-post-Ubuntu-0ubuntu123.04
Operating System: Linux
Default Encoding: UTF-8
Language: en
Country: US
--></g></svg>