<?xml version="1.0" encoding="UTF-8" standalone="no"?><svg xmlns="http://www.w3.org/2000/svg" xmlns:xlink="http://www.w3.org/1999/xlink" contentScriptType="application/ecmascript" contentStyleType="text/css" height="542px" preserveAspectRatio="none" style="width:999px;height:542px;" version="1.1" viewBox="0 0 999 542" width="999px" zoomAndPan="magnify"><defs/><g><!--MD5=[9681dc6e01e10c6b4fe06895ae94f592]
cluster UI--><rect fill="#FFFFFF" height="473" style="stroke: #000000; stroke-width: 1.5;" width="767" x="22" y="58"/><text fill="#000000" font-family="sans-serif" font-size="16" font-weight="bold" lengthAdjust="spacingAndGlyphs" textLength="18" x="396.5" y="74.8516">UI</text><!--MD5=[15636c1ca4a123c16a2a1a8e90aca7a9]
cluster Model--><rect fill="#FFFFFF" height="96" style="stroke: #000000; stroke-width: 1.5;" width="167" x="821" y="434"/><text fill="#000000" font-family="sans-serif" font-size="16" font-weight="bold" lengthAdjust="spacingAndGlyphs" textLength="53" x="878" y="450.8516">Model</text><!--MD5=[8237f0313b7e89f796726a268ea6fa70]
cluster Logic--><rect fill="#FFFFFF" height="96" style="stroke: #000000; stroke-width: 1.5;" width="160" x="821" y="164"/><text fill="#000000" font-family="sans-serif" font-size="16" font-weight="bold" lengthAdjust="spacingAndGlyphs" textLength="46" x="878" y="180.8516">Logic</text><!--MD5=[56c17820b5ec61b985b118caeb6340b1]
class Ui--><rect fill="#1D8900" height="44.9219" id="Ui" style="stroke: #FFFFFF; stroke-width: 1.0;" width="122" x="382" y="95"/><text fill="#FFFFFF" font-family="Arial" font-size="15" lengthAdjust="spacingAndGlyphs" textLength="116" x="385" y="113.9233">&lt;&lt;interface&gt;&gt;</text><text fill="#FFFFFF" font-family="Arial" font-size="15" lengthAdjust="spacingAndGlyphs" textLength="14" x="436" y="131.3843">Ui</text><!--MD5=[2194e160f11909a32d987932bec8f8fd]
class UiPart--><rect fill="#1D8900" height="44.9219" id="UiPart" style="stroke: #FFFFFF; stroke-width: 1.0;" width="87" x="312.5" y="470"/><text fill="#FFFFFF" font-family="Arial" font-size="15" lengthAdjust="spacingAndGlyphs" textLength="81" x="315.5" y="488.9233">{abstract}</text><text fill="#FFFFFF" font-family="Arial" font-size="15" lengthAdjust="spacingAndGlyphs" textLength="44" x="334" y="506.3843">UiPart</text><!--MD5=[bb31649cd695b383b0a893153f017b1a]
class UiManager--><rect fill="#1D8900" height="27.4609" id="UiManager" style="stroke: #FFFFFF; stroke-width: 1.0;" width="84" x="539" y="104"/><text fill="#FFFFFF" font-family="Arial" font-size="15" lengthAdjust="spacingAndGlyphs" textLength="78" x="542" y="122.9233">UiManager</text><!--MD5=[e6c809820d88acc3564faeb20394ab9d]
class MainWindow--><rect fill="#1D8900" height="27.4609" id="MainWindow" style="stroke: #FFFFFF; stroke-width: 1.0;" width="98" x="382" y="209"/><text fill="#FFFFFF" font-family="Arial" font-size="15" lengthAdjust="spacingAndGlyphs" textLength="92" x="385" y="227.9233">MainWindow</text><!--MD5=[6a99d1f66704ead86da80187de9dded6]
class HelpWindow--><rect fill="#1D8900" height="27.4609" id="HelpWindow" style="stroke: #FFFFFF; stroke-width: 1.0;" width="96" x="522" y="296"/><text fill="#FFFFFF" font-family="Arial" font-size="15" lengthAdjust="spacingAndGlyphs" textLength="90" x="525" y="314.9233">HelpWindow</text><!--MD5=[ea641667e014ba942dc8bca88e7c22f4]
class ResultDisplay--><rect fill="#1D8900" height="27.4609" id="ResultDisplay" style="stroke: #FFFFFF; stroke-width: 1.0;" width="102" x="238" y="296"/><text fill="#FFFFFF" font-family="Arial" font-size="15" lengthAdjust="spacingAndGlyphs" textLength="96" x="241" y="314.9233">ResultDisplay</text><!--MD5=[6f328e00a5b597ee0df8530175ebb54b]
class PersonListPanel--><rect fill="#1D8900" height="27.4609" id="PersonListPanel" style="stroke: #FFFFFF; stroke-width: 1.0;" width="120" x="653" y="296"/><text fill="#FFFFFF" font-family="Arial" font-size="15" lengthAdjust="spacingAndGlyphs" textLength="114" x="656" y="314.9233">PersonListPanel</text><!--MD5=[a643022b364c985e94cf991eab611446]
class PersonCard--><rect fill="#1D8900" height="27.4609" id="PersonCard" style="stroke: #FFFFFF; stroke-width: 1.0;" width="90" x="668" y="383"/><text fill="#FFFFFF" font-family="Arial" font-size="15" lengthAdjust="spacingAndGlyphs" textLength="84" x="671" y="401.9233">PersonCard</text><!--MD5=[2b60db2fc160c90f3a0ded0376aa3223]
class StatusBarFooter--><rect fill="#1D8900" height="27.4609" id="StatusBarFooter" style="stroke: #FFFFFF; stroke-width: 1.0;" width="127" x="75.5" y="296"/><text fill="#FFFFFF" font-family="Arial" font-size="15" lengthAdjust="spacingAndGlyphs" textLength="121" x="78.5" y="314.9233">StatusBarFooter</text><!--MD5=[bfe415b5c3f0a3f3f66149424b76647d]
class CommandBox--><rect fill="#1D8900" height="27.4609" id="CommandBox" style="stroke: #FFFFFF; stroke-width: 1.0;" width="111" x="375.5" y="296"/><text fill="#FFFFFF" font-family="Arial" font-size="15" lengthAdjust="spacingAndGlyphs" textLength="105" x="378.5" y="314.9233">CommandBox</text><!--MD5=[eef5f0b07d2fd263bed9c722d8c1c089]
class HiddenModel--><rect fill="#FFFFFF" height="27.4609" id="HiddenModel" style="stroke: #FFFFFF; stroke-width: 1.0;" width="99" x="864.5" y="479"/><rect fill="#FFFFFF" height="27.4609" style="stroke: #FFFFFF; stroke-width: 1.0;" width="99" x="864.5" y="479"/><text fill="#FFFFFF" font-family="Arial" font-size="15" lengthAdjust="spacingAndGlyphs" textLength="93" x="867.5" y="497.9233">HiddenModel</text><!--MD5=[68aa0c86fa78b4986a45cc6cf99a7822]
class HiddenLogic--><rect fill="#FFFFFF" height="27.4609" id="HiddenLogic" style="stroke: #FFFFFF; stroke-width: 1.0;" width="93" x="864.5" y="209"/><rect fill="#FFFFFF" height="27.4609" style="stroke: #FFFFFF; stroke-width: 1.0;" width="93" x="864.5" y="209"/><text fill="#FFFFFF" font-family="Arial" font-size="15" lengthAdjust="spacingAndGlyphs" textLength="87" x="867.5" y="227.9233">HiddenLogic</text><!--MD5=[f8dc820cca8808bdb695301f77a92b66]
class HiddenOutside--><rect fill="#FFFFFF" height="27.4609" id="HiddenOutside" style="stroke: #FFFFFF; stroke-width: 1.0;" width="112" x="387" y="8"/><rect fill="#FFFFFF" height="27.4609" style="stroke: #FFFFFF; stroke-width: 1.0;" width="112" x="387" y="8"/><text fill="#FFFFFF" font-family="Arial" font-size="15" lengthAdjust="spacingAndGlyphs" textLength="106" x="390" y="26.9233">HiddenOutside</text><!--MD5=[a2825086c9e6423d98970e86c37e1f32]
link HiddenOutside to Ui--><path d="M443,35.18 C443,48.98 443,71.48 443,89.31 " fill="none" id="HiddenOutside-&gt;Ui" style="stroke: #0E4100; stroke-width: 1.1; stroke-dasharray: 7.0,7.0;"/><polygon fill="#0E4100" points="443,94.68,447,85.68,443,89.68,439,85.68,443,94.68" style="stroke: #0E4100; stroke-width: 1.1;"/><!--MD5=[d23f9412713304e09763acc39549c87b]
reverse link Ui to UiManager--><path d="M524.31,117.5 C529.2,117.5 534.1,117.5 538.99,117.5 " fill="none" id="Ui&lt;-UiManager" style="stroke: #0E4100; stroke-width: 1.1; stroke-dasharray: 7.0,7.0;"/><polygon fill="none" points="524.18,124.5,504.18,117.5,524.18,110.5,524.18,124.5" style="stroke: #0E4100; stroke-width: 1.1;"/><!--MD5=[f4359266757daa3e145c93b9f63f2a7f]
link UiManager to MainWindow--><path d="M562.61,131.13 C535.17,149.97 483.56,185.41 453.77,205.86 " fill="none" id="UiManager-&gt;MainWindow" style="stroke: #0E4100; stroke-width: 1.1;"/><polygon fill="#0E4100" points="449.54,208.77,459.2212,206.9603,453.6581,205.9343,454.6841,200.3713,449.54,208.77" style="stroke: #0E4100; stroke-width: 1.1;"/><text fill="#000000" font-family="sans-serif" font-size="13" font-weight="bold" lengthAdjust="spacingAndGlyphs" textLength="9" x="445.7173" y="197.9478">1</text><!--MD5=[92dc039ae140ba7abbe540b6db158255]
link MainWindow to CommandBox--><path d="M431,248.04 C431,248.04 431,272.26 431,282.83 " fill="none" id="MainWindow-CommandBox" style="stroke: #0E4100; stroke-width: 1.1;"/><polygon fill="#0E4100" points="431,295.91,435,286.91,431,290.91,427,286.91,431,295.91" style="stroke: #0E4100; stroke-width: 1.1;"/><line style="stroke: #0E4100; stroke-width: 1.1;" x1="431" x2="431" y1="290.91" y2="282.91"/><polygon fill="#0E4100" points="431,236.04,427,242.04,431,248.04,435,242.04,431,236.04" style="stroke: #0E4100; stroke-width: 1.1;"/><text fill="#000000" font-family="sans-serif" font-size="13" font-weight="bold" lengthAdjust="spacingAndGlyphs" textLength="9" x="420.2844" y="284.8738">1</text><!--MD5=[751f32356d036c385cef4d287122ae87]
link MainWindow to ResultDisplay--><path d="M399.7508,242.1984 C399.7508,242.1984 344.54,275.25 321.36,289.13 " fill="none" id="MainWindow-ResultDisplay" style="stroke: #0E4100; stroke-width: 1.1;"/><polygon fill="#0E4100" points="310.04,295.91,319.8165,294.7187,314.3299,293.3416,315.7071,287.8549,310.04,295.91" style="stroke: #0E4100; stroke-width: 1.1;"/><line style="stroke: #0E4100; stroke-width: 1.1;" x1="314.3299" x2="321.195" y1="293.3416" y2="289.23"/><polygon fill="#0E4100" points="410.05,236.04,402.8476,235.6861,399.7508,242.1984,406.9532,242.5523,410.05,236.04" style="stroke: #0E4100; stroke-width: 1.1;"/><text fill="#000000" font-family="sans-serif" font-size="13" font-weight="bold" lengthAdjust="spacingAndGlyphs" textLength="9" x="307.3459" y="284.8738">1</text><!--MD5=[35506723594a39fbe4cc4aca9411b96e]
link MainWindow to PersonListPanel--><path d="M484.0977,239.5087 C484.0977,239.5087 608.76,277.08 658.74,292.14 " fill="none" id="MainWindow-PersonListPanel" style="stroke: #0E4100; stroke-width: 1.1;"/><polygon fill="#0E4100" points="671.22,295.91,663.7605,289.4792,666.4334,294.4647,661.448,297.1377,671.22,295.91" style="stroke: #0E4100; stroke-width: 1.1;"/><line style="stroke: #0E4100; stroke-width: 1.1;" x1="666.4334" x2="658.775" y1="294.4647" y2="292.155"/><polygon fill="#0E4100" points="472.61,236.04,477.1976,241.6036,484.0977,239.5087,479.5101,233.9451,472.61,236.04" style="stroke: #0E4100; stroke-width: 1.1;"/><text fill="#000000" font-family="sans-serif" font-size="13" font-weight="bold" lengthAdjust="spacingAndGlyphs" textLength="9" x="644.5758" y="284.8738">1</text><!--MD5=[be77818ef8144b1b88291425d82e9084]
link MainWindow to StatusBarFooter--><path d="M376.3878,239.3924 C376.3878,239.3924 246.76,277.13 194.88,292.23 " fill="none" id="MainWindow-StatusBarFooter" style="stroke: #0E4100; stroke-width: 1.1;"/><polygon fill="#0E4100" points="182.26,295.91,192.0201,297.2291,187.0599,294.5096,189.7794,289.5493,182.26,295.91" style="stroke: #0E4100; stroke-width: 1.1;"/><line style="stroke: #0E4100; stroke-width: 1.1;" x1="187.0599" x2="194.745" y1="294.5096" y2="292.27"/><polygon fill="#0E4100" points="387.91,236.04,381.0314,233.8755,376.3878,239.3924,383.2664,241.5569,387.91,236.04" style="stroke: #0E4100; stroke-width: 1.1;"/><text fill="#000000" font-family="sans-serif" font-size="13" font-weight="bold" lengthAdjust="spacingAndGlyphs" textLength="9" x="188.0372" y="284.8738">1</text><!--MD5=[86d09801fc7f798f389a693fae28d604]
link MainWindow to HelpWindow--><path d="M451.51,236.04 C476.35,251.23 518.19,276.82 544.92,293.17 " fill="none" id="MainWindow-&gt;HelpWindow" style="stroke: #0E4100; stroke-width: 1.1;"/><polygon fill="#0E4100" points="549.41,295.91,543.802,287.8137,545.139,293.3103,539.6424,294.6473,549.41,295.91" style="stroke: #0E4100; stroke-width: 1.1;"/><text fill="#000000" font-family="sans-serif" font-size="13" font-weight="bold" lengthAdjust="spacingAndGlyphs" textLength="28" x="508.2226" y="284.8738">0..1</text><!--MD5=[ea662611cbbc51d115f0c127194e997f]
link PersonListPanel to PersonCard--><path d="M713,323.04 C713,337.48 713,361.3 713,377.67 " fill="none" id="PersonListPanel-&gt;PersonCard" style="stroke: #0E4100; stroke-width: 1.1;"/><polygon fill="#0E4100" points="713,382.91,717,373.91,713,377.91,709,373.91,713,382.91" style="stroke: #0E4100; stroke-width: 1.1;"/><text fill="#000000" font-family="sans-serif" font-size="13" font-weight="bold" lengthAdjust="spacingAndGlyphs" textLength="7" x="704.6656" y="371.8738">*</text><!--MD5=[57cdbd9c2a08b96199a6234d10bf0163]
reverse link UiPart to MainWindow--><path d="M292.65,474.65 C189.18,446.4 3.59,383.84 76,296 C114.92,248.79 293.28,231.93 381.72,226.22 " fill="none" id="UiPart&lt;-MainWindow" style="stroke: #0E4100; stroke-width: 1.1;"/><polygon fill="none" points="294.62,467.93,312.15,479.83,291.02,481.46,294.62,467.93" style="stroke: #0E4100; stroke-width: 1.1;"/><!--MD5=[c2b0433d56a858074b2759587ea31389]
link MainWindow to UiPart--><!--MD5=[6a054d1cbcb280d35d5ed6cf4ddd3c4a]
link ResultDisplay to UiPart--><path d="M293.71,323.23 C303.39,349.39 325.89,410.16 341.03,451.05 " fill="none" id="ResultDisplay-&gt;UiPart" style="stroke: #0E4100; stroke-width: 1.1;"/><polygon fill="none" points="347.59,448.62,347.97,469.81,334.46,453.48,347.59,448.62" style="stroke: #0E4100; stroke-width: 1.1;"/><!--MD5=[bbb9937c6b10c921f0d97eaed5a79881]
link CommandBox to UiPart--><path d="M425.73,323.23 C414.86,349.45 389.59,410.44 372.64,451.33 " fill="none" id="CommandBox-&gt;UiPart" style="stroke: #0E4100; stroke-width: 1.1;"/><polygon fill="none" points="379.11,454.01,364.99,469.81,366.18,448.65,379.11,454.01" style="stroke: #0E4100; stroke-width: 1.1;"/><!--MD5=[062b7b64e0791ca63e994fa5ee753224]
link PersonListPanel to UiPart--><path d="M688.18,323.08 C632.48,351.32 496.18,420.43 416.56,460.8 " fill="none" id="PersonListPanel-&gt;UiPart" style="stroke: #0E4100; stroke-width: 1.1;"/><polygon fill="none" points="419.58,467.11,398.57,469.91,413.25,454.63,419.58,467.11" style="stroke: #0E4100; stroke-width: 1.1;"/><!--MD5=[e5abfe53cce714a0aa8ca31ebb3d2ec8]
link PersonCard to UiPart--><path d="M667.79,409.41 C604.94,425.95 490.89,455.98 419.53,474.77 " fill="none" id="PersonCard-&gt;UiPart" style="stroke: #0E4100; stroke-width: 1.1;"/><polygon fill="none" points="420.85,481.66,399.73,479.99,417.29,468.12,420.85,481.66" style="stroke: #0E4100; stroke-width: 1.1;"/><!--MD5=[333db60c48b4ce035180c8fd8b7021d9]
link StatusBarFooter to UiPart--><path d="M154.26,323.23 C187.12,350.64 265.57,416.07 314.39,456.79 " fill="none" id="StatusBarFooter-&gt;UiPart" style="stroke: #0E4100; stroke-width: 1.1;"/><polygon fill="none" points="319.12,451.62,330,469.81,310.15,462.38,319.12,451.62" style="stroke: #0E4100; stroke-width: 1.1;"/><!--MD5=[f6ded6870070611f25c393be6d476ca5]
link HelpWindow to UiPart--><path d="M554.95,323.23 C522.54,350.64 445.18,416.07 397.04,456.79 " fill="none" id="HelpWindow-&gt;UiPart" style="stroke: #0E4100; stroke-width: 1.1;"/><polygon fill="none" points="401.43,462.24,381.64,469.81,392.39,451.55,401.43,462.24" style="stroke: #0E4100; stroke-width: 1.1;"/><!--MD5=[10b56b76ef32f58d5dcb2a8011c87443]
link PersonCard to Model--><path d="M758.01,403.31 C768.98,406.35 780.09,410.97 789,418 C803.145,429.155 812.9725,446.7475 819.3463,461.9238 C819.7446,462.8723 820.1295,463.8113 820.5011,464.7388 C820.594,464.9707 820.686,465.2018 820.7773,465.4322 C820.8229,465.5474 820.8683,465.6624 820.9135,465.7772 " fill="none" id="PersonCard-&gt;Model" style="stroke: #0E4100; stroke-width: 1.1; stroke-dasharray: 7.0,7.0;"/><polygon fill="#0E4100" points="820.9135,465.7772,821.338,455.9375,819.0816,461.1249,813.8942,458.8686,820.9135,465.7772" style="stroke: #0E4100; stroke-width: 1.1;"/><!--MD5=[90aba6ec762193f41687f31212656d8f]
link UiManager to Logic--><path d="M623.33,120.07 C676.21,122.78 762.93,129.91 789,148 C803.8,158.27 813.6475,175.835 819.8675,191.2188 C820.2563,192.1802 820.6308,193.1332 820.9916,194.0753 " fill="none" id="UiManager-&gt;Logic" style="stroke: #0E4100; stroke-width: 1.1;"/><polygon fill="#0E4100" points="820.9916,194.0753,821.5089,184.2401,819.2037,189.4059,814.0378,187.1007,820.9916,194.0753" style="stroke: #0E4100; stroke-width: 1.1;"/><!--MD5=[07bc7cbf7874720da1634fdfdaf490e2]
reverse link Logic to MainWindow--><path d="M820.1645,222.5 C819.2583,222.5 818.3521,222.5 817.446,222.5 C813.8213,222.5 810.1966,222.5 806.572,222.5 C799.3227,222.5 792.0734,222.5 784.8242,222.5 C770.3257,222.5 755.8273,222.5 741.3291,222.5 C712.3325,222.5 683.3363,222.5 654.34,222.5 C596.3475,222.5 538.355,222.5 480.36,222.5 " fill="none" id="Logic&lt;-MainWindow" style="stroke: #0E4100; stroke-width: 1.1;"/><polygon fill="#0E4100" points="820.1645,222.5,811.1645,218.5,815.1645,222.5,811.1645,226.5,820.1645,222.5" style="stroke: #0E4100; stroke-width: 1.1;"/><!--MD5=[6304e58fc5c7753a667367f50605245c]
link HelpWindow to PersonListPanel--><!--MD5=[8655318e6662184a4a769bb45b69b25c]
link CommandBox to HelpWindow--><!--MD5=[b8f93d5457cb1cca443f250cedc61ee2]
link ResultDisplay to CommandBox--><!--MD5=[be41e9187af53a708441cf1977ae807e]
link StatusBarFooter to ResultDisplay--><!--MD5=[617dc168b59a5c27cf2321be8413fe61]
@startuml








skinparam Package {
    BackgroundColor #FFFFFF
    BorderThickness 1
    FontSize 16
}

skinparam Class {
    FontColor #FFFFFF
    FontSize 15
    BorderThickness 1
    BorderColor #FFFFFF
    StereotypeFontColor #FFFFFF
    FontName Arial
}

skinparam Actor {
    BorderColor #000000
    Color #000000
    FontName Arial
}

skinparam Sequence {
    MessageAlign center
    BoxFontSize 15
    BoxPadding 0
    BoxFontColor #FFFFFF
    FontName Arial
}

skinparam Participant {
    FontColor #FFFFFFF
    Padding 20
}

skinparam ArrowFontStyle bold
skinparam MinClassWidth 50
skinparam ParticipantPadding 10
skinparam Shadowing false
skinparam DefaultTextAlignment center
skinparam packageStyle Rectangle

hide footbox
hide members
hide circle
skinparam arrowThickness 1.1
skinparam arrowColor #0E4100
skinparam classBackgroundColor #1D8900

package UI <<Rectangle>>{
Class "<<interface>>\nUi" as Ui
Class "{abstract}\nUiPart" as UiPart
Class UiManager
Class MainWindow
Class HelpWindow
Class ResultDisplay
Class PersonListPanel
Class PersonCard
Class StatusBarFooter
Class CommandBox
}

package Model <<Rectangle>> {
Class HiddenModel #FFFFFF
}

package Logic <<Rectangle>> {
Class HiddenLogic #FFFFFF
}

Class HiddenOutside #FFFFFF
HiddenOutside ..> Ui

UiManager .left.|> Ui
UiManager -down-> "1" MainWindow
MainWindow *-down->  "1" CommandBox
MainWindow *-down-> "1" ResultDisplay
MainWindow *-down-> "1" PersonListPanel
MainWindow *-down-> "1" StatusBarFooter
MainWindow - -> "0..1" HelpWindow

PersonListPanel -down-> "*" PersonCard

MainWindow -left-|> UiPart

ResultDisplay - -|> UiPart
CommandBox - -|> UiPart
PersonListPanel - -|> UiPart
PersonCard - -|> UiPart
StatusBarFooter - -|> UiPart
HelpWindow - -|> UiPart

PersonCard ..> Model
UiManager -right-> Logic
MainWindow -left-> Logic

PersonListPanel -[hidden]left- HelpWindow
HelpWindow -[hidden]left- CommandBox
CommandBox -[hidden]left- ResultDisplay
ResultDisplay -[hidden]left- StatusBarFooter

MainWindow -[hidden]-|> UiPart
@enduml

PlantUML version 1.2020.02(Sun Mar 01 18:22:07 SGT 2020)
(GPL source distribution)
Java Runtime: OpenJDK Runtime Environment
JVM: OpenJDK 64-Bit Server VM
Java Version: 11.0.20.1+1-post-Ubuntu-0ubuntu123.04
Operating System: Linux
Default Encoding: UTF-8
Language: en
Country: US
--></g></svg>