<?xml version="1.0" encoding="UTF-8" standalone="no"?><svg xmlns="http://www.w3.org/2000/svg" xmlns:xlink="http://www.w3.org/1999/xlink" contentScriptType="application/ecmascript" contentStyleType="text/css" height="461px" preserveAspectRatio="none" style="width:1020px;height:461px;" version="1.1" viewBox="0 0 1020 461" width="1020px" zoomAndPan="magnify"><defs/><g><rect fill="#C8C8FA" height="439.25" style="stroke: #A80036; stroke-width: 1.0;" width="503.5" x="48.5" y="4"/><text fill="#FFFFFF" font-family="sans-serif" font-size="15" font-weight="bold" lengthAdjust="spacingAndGlyphs" textLength="43" x="276.25" y="17.9233">Logic</text><rect fill="#F97181" height="439.25" style="stroke: #A80036; stroke-width: 1.0;" width="304" x="579" y="4"/><text fill="#FFFFFF" font-family="sans-serif" font-size="15" font-weight="bold" lengthAdjust="spacingAndGlyphs" textLength="48" x="704.5" y="17.9233">Model</text><rect fill="#FFFFFF" height="343.3594" style="stroke: #A80036; stroke-width: 1.0;" width="10" x="115" y="87.8906"/><rect fill="#FFFFFF" height="84.4297" style="stroke: #A80036; stroke-width: 1.0;" width="10" x="289" y="117.0234"/><rect fill="#FFFFFF" height="31.2969" style="stroke: #A80036; stroke-width: 1.0;" width="10" x="465" y="141.0234"/><rect fill="#FFFFFF" height="157.5313" style="stroke: #A80036; stroke-width: 1.0;" width="10" x="465" y="230.5859"/><rect fill="#FFFFFF" height="99.2656" style="stroke: #A80036; stroke-width: 1.0;" width="10" x="620" y="259.7188"/><rect fill="#FFFFFF" height="56.1328" style="stroke: #A80036; stroke-width: 1.0;" width="10" x="773" y="288.8516"/><line style="stroke: #A80036; stroke-width: 1.0; stroke-dasharray: 5.0,5.0;" x1="119.5" x2="119.5" y1="56.7578" y2="449.25"/><line style="stroke: #A80036; stroke-width: 1.0; stroke-dasharray: 5.0,5.0;" x1="294" x2="294" y1="56.7578" y2="449.25"/><line style="stroke: #A80036; stroke-width: 1.0; stroke-dasharray: 5.0,5.0;" x1="470" x2="470" y1="155.6719" y2="449.25"/><line style="stroke: #A80036; stroke-width: 1.0; stroke-dasharray: 5.0,5.0;" x1="625" x2="625" y1="56.7578" y2="449.25"/><line style="stroke: #A80036; stroke-width: 1.0; stroke-dasharray: 5.0,5.0;" x1="778" x2="778" y1="56.7578" y2="449.25"/><rect fill="#3333C4" height="30.2969" style="stroke: #A80036; stroke-width: 1.5;" width="115" x="62.5" y="25.4609"/><text fill="#FFFFFF" font-family="sans-serif" font-size="14" lengthAdjust="spacingAndGlyphs" textLength="101" x="69.5" y="45.4561">:LogicManager</text><rect fill="#3333C4" height="30.2969" style="stroke: #A80036; stroke-width: 1.5;" width="156" x="216" y="25.4609"/><text fill="#FFFFFF" font-family="sans-serif" font-size="14" lengthAdjust="spacingAndGlyphs" textLength="142" x="223" y="45.4561">:AddressBookParser</text><rect fill="#9D0012" height="30.2969" style="stroke: #A80036; stroke-width: 1.5;" width="64" x="593" y="25.4609"/><text fill="#FFFFFF" font-family="sans-serif" font-size="14" lengthAdjust="spacingAndGlyphs" textLength="47" x="601.5" y="45.4561">:Model</text><rect fill="#9D0012" height="30.2969" style="stroke: #A80036; stroke-width: 1.5;" width="182" x="687" y="25.4609"/><text fill="#FFFFFF" font-family="sans-serif" font-size="14" lengthAdjust="spacingAndGlyphs" textLength="168" x="694" y="45.4561">:VersionedAddressBook</text><rect fill="#FFFFFF" height="343.3594" style="stroke: #A80036; stroke-width: 1.0;" width="10" x="115" y="87.8906"/><rect fill="#FFFFFF" height="84.4297" style="stroke: #A80036; stroke-width: 1.0;" width="10" x="289" y="117.0234"/><rect fill="#FFFFFF" height="31.2969" style="stroke: #A80036; stroke-width: 1.0;" width="10" x="465" y="141.0234"/><rect fill="#FFFFFF" height="157.5313" style="stroke: #A80036; stroke-width: 1.0;" width="10" x="465" y="230.5859"/><rect fill="#FFFFFF" height="99.2656" style="stroke: #A80036; stroke-width: 1.0;" width="10" x="620" y="259.7188"/><rect fill="#FFFFFF" height="56.1328" style="stroke: #A80036; stroke-width: 1.0;" width="10" x="773" y="288.8516"/><polygon fill="#A80036" points="103,83.8906,113,87.8906,103,91.8906,107,87.8906" style="stroke: #A80036; stroke-width: 1.0;"/><line style="stroke: #A80036; stroke-width: 1.0;" x1="3" x2="109" y1="87.8906" y2="87.8906"/><text fill="#000000" font-family="sans-serif" font-size="13" lengthAdjust="spacingAndGlyphs" textLength="93" x="12.5" y="82.8247">execute(undo)</text><polygon fill="#A80036" points="277,113.0234,287,117.0234,277,121.0234,281,117.0234" style="stroke: #A80036; stroke-width: 1.0;"/><line style="stroke: #A80036; stroke-width: 1.0;" x1="125" x2="283" y1="117.0234" y2="117.0234"/><text fill="#000000" font-family="sans-serif" font-size="13" lengthAdjust="spacingAndGlyphs" textLength="145" x="134.5" y="111.9575">parseCommand(undo)</text><polygon fill="#A80036" points="390,127.0234,400,131.0234,390,135.0234,394,131.0234" style="stroke: #A80036; stroke-width: 1.0;"/><line style="stroke: #A80036; stroke-width: 1.0;" x1="299" x2="396" y1="131.0234" y2="131.0234"/><rect fill="#3333C4" height="30.2969" style="stroke: #A80036; stroke-width: 1.5;" width="136" x="402" y="125.0234"/><text fill="#FFFFFF" font-family="sans-serif" font-size="14" lengthAdjust="spacingAndGlyphs" textLength="122" x="409" y="145.0186">u:UndoCommand</text><polygon fill="#A80036" points="310,168.3203,300,172.3203,310,176.3203,306,172.3203" style="stroke: #A80036; stroke-width: 1.0;"/><line style="stroke: #A80036; stroke-width: 1.0; stroke-dasharray: 2.0,2.0;" x1="304" x2="469" y1="172.3203" y2="172.3203"/><polygon fill="#A80036" points="136,197.4531,126,201.4531,136,205.4531,132,201.4531" style="stroke: #A80036; stroke-width: 1.0;"/><line style="stroke: #A80036; stroke-width: 1.0; stroke-dasharray: 2.0,2.0;" x1="130" x2="293" y1="201.4531" y2="201.4531"/><text fill="#000000" font-family="sans-serif" font-size="13" lengthAdjust="spacingAndGlyphs" textLength="8" x="205.5" y="196.3872">u</text><polygon fill="#A80036" points="453,226.5859,463,230.5859,453,234.5859,457,230.5859" style="stroke: #A80036; stroke-width: 1.0;"/><line style="stroke: #A80036; stroke-width: 1.0;" x1="125" x2="459" y1="230.5859" y2="230.5859"/><text fill="#000000" font-family="sans-serif" font-size="13" lengthAdjust="spacingAndGlyphs" textLength="61" x="264.5" y="225.52">execute()</text><polygon fill="#A80036" points="608,255.7188,618,259.7188,608,263.7188,612,259.7188" style="stroke: #A80036; stroke-width: 1.0;"/><line style="stroke: #A80036; stroke-width: 1.0;" x1="475" x2="614" y1="259.7188" y2="259.7188"/><text fill="#000000" font-family="sans-serif" font-size="13" lengthAdjust="spacingAndGlyphs" textLength="126" x="484.5" y="254.6528">undoAddressBook()</text><polygon fill="#A80036" points="761,284.8516,771,288.8516,761,292.8516,765,288.8516" style="stroke: #A80036; stroke-width: 1.0;"/><line style="stroke: #A80036; stroke-width: 1.0;" x1="630" x2="767" y1="288.8516" y2="288.8516"/><text fill="#000000" font-family="sans-serif" font-size="13" lengthAdjust="spacingAndGlyphs" textLength="42" x="680.5" y="283.7856">undo()</text><line style="stroke: #A80036; stroke-width: 1.0;" x1="783" x2="825" y1="317.9844" y2="317.9844"/><line style="stroke: #A80036; stroke-width: 1.0;" x1="825" x2="825" y1="317.9844" y2="330.9844"/><line style="stroke: #A80036; stroke-width: 1.0;" x1="784" x2="825" y1="330.9844" y2="330.9844"/><polygon fill="#A80036" points="794,326.9844,784,330.9844,794,334.9844,790,330.9844" style="stroke: #A80036; stroke-width: 1.0;"/><text fill="#000000" font-family="sans-serif" font-size="13" lengthAdjust="spacingAndGlyphs" textLength="218" x="790" y="312.9185">resetData(ReadOnlyAddressBook)</text><polygon fill="#A80036" points="641,340.9844,631,344.9844,641,348.9844,637,344.9844" style="stroke: #A80036; stroke-width: 1.0;"/><line style="stroke: #A80036; stroke-width: 1.0; stroke-dasharray: 2.0,2.0;" x1="635" x2="777" y1="344.9844" y2="344.9844"/><polygon fill="#A80036" points="486,354.9844,476,358.9844,486,362.9844,482,358.9844" style="stroke: #A80036; stroke-width: 1.0;"/><line style="stroke: #A80036; stroke-width: 1.0; stroke-dasharray: 2.0,2.0;" x1="480" x2="624" y1="358.9844" y2="358.9844"/><polygon fill="#A80036" points="136,384.1172,126,388.1172,136,392.1172,132,388.1172" style="stroke: #A80036; stroke-width: 1.0;"/><line style="stroke: #A80036; stroke-width: 1.0; stroke-dasharray: 2.0,2.0;" x1="130" x2="469" y1="388.1172" y2="388.1172"/><text fill="#000000" font-family="sans-serif" font-size="13" lengthAdjust="spacingAndGlyphs" textLength="36" x="279.5" y="383.0513">result</text><line style="stroke: #A80036; stroke-width: 2.0;" x1="461" x2="479" y1="408.25" y2="426.25"/><line style="stroke: #A80036; stroke-width: 2.0;" x1="461" x2="479" y1="426.25" y2="408.25"/><polygon fill="#A80036" points="14,427.25,4,431.25,14,435.25,10,431.25" style="stroke: #A80036; stroke-width: 1.0;"/><line style="stroke: #A80036; stroke-width: 1.0; stroke-dasharray: 2.0,2.0;" x1="8" x2="119" y1="431.25" y2="431.25"/><!--MD5=[d81cea0784fabd63f96c97613cb0817c]
@startuml








skinparam Package {
    BackgroundColor #FFFFFF
    BorderThickness 1
    FontSize 16
}

skinparam Class {
    FontColor #FFFFFF
    FontSize 15
    BorderThickness 1
    BorderColor #FFFFFF
    StereotypeFontColor #FFFFFF
    FontName Arial
}

skinparam Actor {
    BorderColor #000000
    Color #000000
    FontName Arial
}

skinparam Sequence {
    MessageAlign center
    BoxFontSize 15
    BoxPadding 0
    BoxFontColor #FFFFFF
    FontName Arial
}

skinparam Participant {
    FontColor #FFFFFFF
    Padding 20
}

skinparam ArrowFontStyle bold
skinparam MinClassWidth 50
skinparam ParticipantPadding 10
skinparam Shadowing false
skinparam DefaultTextAlignment center
skinparam packageStyle Rectangle

hide footbox
hide members
hide circle
skinparam ArrowFontStyle plain

box Logic #C8C8FA
participant ":LogicManager" as LogicManager #3333C4
participant ":AddressBookParser" as AddressBookParser #3333C4
participant "u:UndoCommand" as UndoCommand #3333C4
end box

box Model #F97181
participant ":Model" as Model #9D0012
participant ":VersionedAddressBook" as VersionedAddressBook #9D0012
end box
[-> LogicManager : execute(undo)
activate LogicManager

LogicManager -> AddressBookParser : parseCommand(undo)
activate AddressBookParser

create UndoCommand
AddressBookParser -> UndoCommand
activate UndoCommand

UndoCommand - -> AddressBookParser
deactivate UndoCommand

AddressBookParser - -> LogicManager : u
deactivate AddressBookParser

LogicManager -> UndoCommand : execute()
activate UndoCommand

UndoCommand -> Model : undoAddressBook()
activate Model

Model -> VersionedAddressBook : undo()
activate VersionedAddressBook

VersionedAddressBook -> VersionedAddressBook :resetData(ReadOnlyAddressBook)
VersionedAddressBook - -> Model :
deactivate VersionedAddressBook

Model - -> UndoCommand
deactivate Model

UndoCommand - -> LogicManager : result
deactivate UndoCommand
UndoCommand -[hidden]-> LogicManager : result
destroy UndoCommand

[<- -LogicManager
deactivate LogicManager
@enduml

PlantUML version 1.2020.02(Sun Mar 01 18:22:07 SGT 2020)
(GPL source distribution)
Java Runtime: OpenJDK Runtime Environment
JVM: OpenJDK 64-Bit Server VM
Java Version: 11.0.20.1+1-post-Ubuntu-0ubuntu123.04
Operating System: Linux
Default Encoding: UTF-8
Language: en
Country: US
--></g></svg>